<svg xmlns="http://www.w3.org/2000/svg" width="18.988" height="31" viewBox="0 0 18.988 31">
  <defs>
    <style>
      .cls-1 {
        fill: none;
        stroke: #fff;
        stroke-linecap: round;
        stroke-miterlimit: 10;
      }
    </style>
  </defs>
  <path id="light_off" class="cls-1" d="M297.42,12.831a.789.789,0,0,1-.8-.924c.451-2.242,1.53-7.82,1.618-8.2a3.51,3.51,0,0,0,.143-.879,1.2,1.2,0,0,0-1.124-1.25,1.153,1.153,0,0,0-.978.608c-.182.338-2.067,3.649-2.575,4.595-.652,1.148-1.268,2.3-1.92,3.446s-1.269,2.3-1.921,3.479c-.508.947-2.574,4.7-2.574,4.7a1.324,1.324,0,0,0,.362,1.723,1.008,1.008,0,0,0,.58.2h6.489a.856.856,0,0,1,.871,1.005c-.51,2.481-1.741,8.7-1.741,8.759a1.261,1.261,0,0,0,.87,1.452c.072,0,.145.034.217.034a1.084,1.084,0,0,0,.907-.541s3.226-5.912,3.589-6.553c.361-.676.725-1.352,1.124-2.027.361-.676.725-1.352,1.087-1.994.327-.608.689-1.25,1.016-1.858q.432-.82.907-1.621c.217-.406,1.3-2.23,1.3-2.23a1.25,1.25,0,0,0,.146-.609A1.107,1.107,0,0,0,304,12.831Z" transform="translate(-286.533 -1.081)"/>
</svg>
